Coordinates
version=1
nRows=49
nColumns=12
inDegrees=yes

Units are S.I. units (second, meters, Newtons, ...)
Angles are in degrees

endheader
time	SC_y	SC_z	SC_x	AC_y	AC_z	AC_x	GH_y	GH_z	GH_yy	EL_x	PS_y
       0.0              -20.91          15.54          4.452          68.84          6.593         -12.52          61.07          57.65          121.2          131.2          115.6
   0.03243              -20.91          15.54          4.453          68.84          6.591         -12.52          61.07          57.64          121.2          131.2          115.6
   0.06486              -20.91          15.54          4.455          68.83          6.588         -12.51          61.08          57.64          121.2          131.2          115.6
   0.09729              -20.91          15.54          4.457          68.83          6.585         -12.51          61.08          57.63          121.2          131.2          115.6
    0.1297              -20.91          15.54          4.459          68.82          6.583         -12.51          61.08          57.63          121.2          131.2          115.6
    0.1621              -20.92          15.54          4.461          68.82           6.58          -12.5          61.09          57.62          121.2          131.2          115.5
    0.1946              -20.92          15.55          4.463          68.81          6.576          -12.5          61.09          57.62          121.2          131.2          115.5
     0.227              -20.92          15.55          4.465          68.81          6.573          -12.5           61.1          57.61          121.2          131.2          115.5
    0.2594              -20.92          15.55          4.468           68.8          6.569         -12.49           61.1          57.61          121.1          131.2          115.5
    0.2919              -20.92          15.55           4.47          68.79          6.565         -12.49          61.11           57.6          121.1          131.1          115.5
    0.3243              -20.92          15.56          4.473          68.79          6.561         -12.49          61.11          57.59          121.1          131.1          115.5
    0.3567              -20.92          15.56          4.476          68.78          6.556         -12.48          61.12          57.58          121.1          131.1          115.4
    0.3892              -20.92          15.56           4.48          68.77          6.552         -12.48          61.12          57.57          121.1          131.1          115.4
    0.4216              -20.92          15.56          4.483          68.76          6.546         -12.47          61.13          57.56          121.1          131.1          115.4
     0.454              -20.93          15.57          4.487          68.75           6.54         -12.46          61.14          57.55          121.1          131.1          115.4
    0.4864              -20.93          15.57          4.491          68.74          6.534         -12.46          61.14          57.54          121.0          131.0          115.3
    0.5189              -20.93          15.58          4.496          68.73          6.527         -12.45          61.15          57.53          121.0          131.0          115.3
    0.5513              -20.93          15.58          4.501          68.72           6.52         -12.44          61.16          57.52          121.0          131.0          115.3
    0.5837              -20.93          15.59          4.506          68.71          6.512         -12.43          61.17           57.5          121.0          131.0          115.2
    0.6162              -20.94          15.59          4.512          68.69          6.503         -12.43          61.18          57.49          120.9          130.9          115.2
    0.6486              -20.94           15.6          4.519          68.68          6.493         -12.42           61.2          57.47          120.9          130.9          115.1
     0.681              -20.94           15.6          4.526          68.66          6.483          -12.4          61.21          57.45          120.9          130.9          115.1
    0.7135              -20.95          15.61          4.534          68.64          6.471         -12.39          61.22          57.43          120.8          130.8          115.0
    0.7459              -20.95          15.62          4.542          68.62          6.458         -12.38          61.24          57.41          120.8          130.8          115.0
    0.7783              -20.95          15.63          4.552          68.59          6.443         -12.36          61.26          57.38          120.7          130.7          114.9
    0.8107              -20.96          15.64          4.563          68.57          6.427         -12.35          61.28          57.35          120.7          130.7          114.8
    0.8432              -20.96          15.65          4.575          68.54          6.409         -12.33           61.3          57.32          120.6          130.6          114.7
    0.8756              -20.97          15.66          4.589           68.5          6.388         -12.31          61.33          57.29          120.6          130.5          114.6
     0.908              -20.98          15.67          4.604          68.47          6.365         -12.28          61.35          57.24          120.5          130.5          114.5
    0.9405              -20.98          15.69          4.622          68.42          6.339         -12.26          61.39           57.2          120.4          130.4          114.4
    0.9729              -20.99          15.71          4.642          68.37          6.309         -12.23          61.42          57.15          120.3          130.3          114.3
     1.005               -21.0          15.73          4.665          68.32          6.274         -12.19          61.47          57.08          120.2          130.1          114.1
     1.038              -21.01          15.75          4.691          68.25          6.235         -12.15          61.52          57.01          120.1          130.0          113.9
      1.07              -21.03          15.78          4.722          68.18          6.189          -12.1          61.57          56.93          119.9          129.8          113.7
     1.103              -21.04          15.81          4.758          68.09          6.135         -12.05          61.64          56.84          119.7          129.7          113.5
     1.135              -21.06          15.85          4.801          67.98          6.071         -11.98          61.72          56.72          119.5          129.4          113.2
     1.167              -21.08           15.9          4.851          67.86          5.995         -11.91          61.81          56.59          119.3          129.2          112.8
       1.2              -21.11          15.95          4.912          67.71          5.905         -11.81          61.92          56.43          119.0          128.9          112.4
     1.232              -21.14          16.02          4.985          67.53          5.795          -11.7          62.06          56.24          118.6          128.5          111.9
     1.265              -21.17           16.1          5.075          67.31          5.661         -11.56          62.23           56.0          118.2          128.0          111.2
     1.297              -21.22           16.2          5.185          67.04          5.495         -11.39          62.43          55.71          117.6          127.5          110.4
      1.33              -21.28          16.32          5.323           66.7          5.289         -11.18          62.69          55.34          117.0          126.7          109.5
     1.362              -21.35          16.48          5.497          66.28          5.029         -10.92          63.01          54.89          116.1          125.8          108.3
     1.394              -21.44          16.68          5.718          65.74          4.699         -10.58          63.42           54.3          115.0          124.7          106.7
     1.427              -21.56          16.93            6.0          65.04          4.276         -10.15          63.94          53.56          113.6          123.2          104.7
     1.459              -21.72          17.26          6.363          64.16          3.734         -9.591          64.61           52.6          111.9          121.4          102.2
     1.492              -21.91          17.67          6.826          63.02          3.041         -8.881          65.47          51.37          109.6          119.0          98.92
     1.524              -22.15           18.2          7.408          61.59          2.169         -7.989          66.55          49.83          106.7          116.0          94.83
     1.557              -22.45          18.84          8.118          59.85          1.107         -6.902          67.87          47.96          103.3          112.3          89.84
